<svg width="45" height="42" viewBox="0 0 45 42" fill="none" xmlns="http://www.w3.org/2000/svg">
<path d="M13.248 33.32C12.1813 33.32 11.2107 33.1707 10.336 32.872C9.46133 32.552 8.66133 32.1467 7.936 31.656C7.21067 31.1653 6.58133 30.6213 6.048 30.024C5.51467 29.4267 5.09867 28.8507 4.8 28.296L6.048 26.984C6.368 27.624 6.77333 28.232 7.264 28.808C7.75467 29.384 8.32 29.896 8.96 30.344C9.6 30.792 10.2827 31.144 11.008 31.4C11.7333 31.6347 12.4907 31.752 13.28 31.752C14.7307 31.752 16 31.4213 17.088 30.76C18.176 30.0773 19.0187 29.16 19.616 28.008C20.2347 26.8347 20.544 25.5547 20.544 24.168V12.264H15.008V10.6H26.176V12.264H22.272V24.264C22.272 25.4587 22.0693 26.6107 21.664 27.72C21.28 28.808 20.6933 29.7787 19.904 30.632C19.136 31.464 18.1973 32.1253 17.088 32.616C15.9787 33.0853 14.6987 33.32 13.248 33.32Z" fill="black"/>
<path d="M21.144 33.0098V10.6098H32.76C34.104 10.6098 35.2987 10.9084 36.344 11.5058C37.4107 12.0818 38.2533 12.8604 38.872 13.8418C39.512 14.8231 39.832 15.9218 39.832 17.1378C39.832 18.5458 39.5013 19.7618 38.84 20.7858C38.2 21.7884 37.3147 22.5671 36.184 23.1218C35.0533 23.6764 33.752 23.9538 32.28 23.9538H22.744V33.0098H21.144ZM39.16 33.0098L31.64 23.3778L33.112 22.6418L41.112 33.0098H39.16ZM22.744 22.3538H31.992C33.208 22.3538 34.2747 22.1404 35.192 21.7138C36.1093 21.2658 36.8133 20.6578 37.304 19.8898C37.816 19.1218 38.072 18.2364 38.072 17.2338C38.072 16.2951 37.816 15.4524 37.304 14.7058C36.8133 13.9378 36.1307 13.3298 35.256 12.8818C34.3813 12.4338 33.3893 12.2098 32.28 12.2098H22.744V22.3538Z" fill="black"/>
<circle cx="24" cy="21" r="20.25" stroke="black" stroke-width="1.5"/>
</svg>
